Coordinates
version=1
nRows=13
nColumns=40
inDegrees=yes

Units are S.I. units (second, meters, Newtons, ...)
Angles are in degrees.

endheader
time	pelvis_tilt	pelvis_list	pelvis_rotation	pelvis_tx	pelvis_ty	pelvis_tz	hip_flexion_r	hip_adduction_r	hip_rotation_r	knee_angle_r	knee_angle_r_beta	ankle_angle_r	subtalar_angle_r	mtp_angle_r	hip_flexion_l	hip_adduction_l	hip_rotation_l	knee_angle_l	knee_angle_l_beta	ankle_angle_l	subtalar_angle_l	mtp_angle_l	lumbar_extension	lumbar_bending	lumbar_rotation	arm_flex_r	arm_add_r	arm_rot_r	elbow_flex_r	pro_sup_r	wrist_flex_r	wrist_dev_r	arm_flex_l	arm_add_l	arm_rot_l	elbow_flex_l	pro_sup_l	wrist_flex_l	wrist_dev_l
     58.46250000	     -5.73818686	     -6.38155698	      3.38674944	      0.97173028	      0.93016528	      0.51038712	     11.59179930	      4.25465011	    -20.08438246	     11.50690221	     11.50690221	      8.03115092	      5.52949863	     -5.57153973	     42.12712745	    -11.69544938	      5.57616076	     67.65409574	     67.65409574	      8.01722263	    -17.88121206	      9.46143915	    -12.05032527	      5.31099022	      6.10886315	     26.00492227	    -14.90877165	     -4.22473699	     40.67305231	     45.96081741	      0.00000000	      0.00000000	      1.53820887	     -6.66286053	      0.06138458	     35.82366049	     46.81805850	      0.00000000	      0.00000000
     58.47385714	     -5.71711139	     -6.40580644	      3.58740912	      0.97081706	      0.93038138	      0.51053277	     10.70343421	      4.44574316	    -20.17669835	     10.77607363	     10.77607363	      8.17999912	      5.89207910	     -5.68677872	     42.92724293	    -11.51959591	      5.51049305	     65.45980970	     65.45980970	      7.99782717	    -17.91083085	      9.93786878	    -12.06972210	      5.32837663	      6.11444836	     28.33877773	    -15.13365530	     -3.99351897	     42.48643556	     45.88996016	      0.00000000	      0.00000000	      0.54549025	     -6.61330301	      0.44025479	     32.85322155	     46.72918331	      0.00000000	      0.00000000
     58.48521429	     -5.74608242	     -6.47602871	      3.74793962	      0.96983655	      0.93038833	      0.51068759	      9.92769347	      4.67545885	    -20.31630746	     10.14989315	     10.14989315	      8.37907932	      6.16675044	     -5.84011870	     43.61440397	    -11.43916062	      5.37307316	     62.91028923	     62.91028923	      7.92631171	    -17.85139807	     10.37571486	    -12.10198646	      5.30791990	      6.22744312	     30.41772868	    -15.41481700	     -3.72434602	     44.31385099	     45.81683565	      0.00000000	      0.00000000	     -0.42275680	     -6.56470112	      0.77457638	     30.43602094	     46.64974491	      0.00000000	      0.00000000
     58.49657143	     -5.81132781	     -6.50806807	      3.88291437	      0.96894007	      0.93026090	      0.51070073	      9.20396075	      4.85197401	    -20.35354411	      9.56755935	      9.56755935	      8.61360290	      6.40181487	     -5.96580736	     44.12613257	    -11.26990601	      5.28363329	     60.03897228	     60.03897228	      7.84895482	    -17.70349876	     10.74673386	    -12.05613278	      5.28455031	      6.38582044	     32.54695817	    -15.68993357	     -3.53064933	     46.13386810	     45.75006132	      0.00000000	      0.00000000	     -1.58931252	     -6.56967970	      1.02975881	     28.66807175	     46.58112653	      0.00000000	      0.00000000
     58.50792857	     -5.90943674	     -6.57931627	      3.99704388	      0.96809234	      0.92990890	      0.51066566	      8.52736316	      5.06554289	    -20.39442737	      9.00299961	      9.00299961	      8.86577556	      6.65117322	     -6.10444775	     44.49349552	    -11.11930574	      5.26771468	     56.89439541	     56.89439541	      7.86760756	    -17.36897890	     11.01765442	    -11.97605059	      5.29417559	      6.48285363	     34.64589705	    -15.93944173	     -3.34156509	     48.02615828	     45.68203305	      0.00000000	      0.00000000	     -2.84641709	     -6.60620526	      1.25890421	     27.16388265	     46.51589696	      0.00000000	      0.00000000
     58.51928571	     -5.97516660	     -6.73712519	      4.16983648	      0.96744135	      0.92944913	      0.51034845	      7.71934633	      5.37020092	    -20.61998351	      8.26284696	      8.26284696	      8.89663150	      7.13442075	     -6.74519887	     44.63417175	    -11.00803333	      5.34467787	     53.42164874	     53.42164874	      7.54191969	    -16.95762332	     10.19901113	    -11.96404706	      5.44513119	      7.14189381	     35.36026468	    -17.45153023	     -1.57973552	     53.09139180	     45.42198980	      0.00000000	      0.00000000	     -3.20176877	     -6.51897066	      2.36253366	     23.89397209	     46.27606101	      0.00000000	      0.00000000
     58.53064286	     -6.06088582	     -6.79051594	      4.26537409	      0.96686007	      0.92892833	      0.51000065	      7.03233832	      5.54369618	    -20.56285394	      7.75559975	      7.75559975	      9.21663844	      7.29372855	     -6.82787619	     44.54179538	    -10.80827029	      5.39849326	     49.71149833	     49.71149833	      7.70395154	    -16.26457362	     10.48960766	    -11.87794238	      5.44910663	      7.08405324	     37.47068821	    -17.44714874	     -1.67582487	     54.79457399	     45.37735889	      0.00000000	      0.00000000	     -4.69321400	     -6.65757497	      2.51099743	     23.18936424	     46.21111672	      0.00000000	      0.00000000
     58.54200000	     -6.12740284	     -6.98880610	      4.38104541	      0.96652561	      0.92818024	      0.50953013	      6.24358634	      5.87959231	    -20.69635415	      7.09810513	      7.09810513	      9.41686483	      7.77268706	     -7.20449735	     44.26133290	    -10.75146058	      5.54847568	     45.79248378	     45.79248378	      7.57152185	    -15.43043136	      9.72517581	    -11.82796432	      5.63272960	      7.32920068	     38.63815380	    -18.22112947	     -1.01103713	     58.92807336	     45.22354633	      0.00000000	      0.00000000	     -6.18130745	     -6.85120813	      3.53052410	     22.90791434	     45.92698040	      0.00000000	      0.00000000
     58.55335714	     -6.20555167	     -7.07924634	      4.46765772	      0.96634518	      0.92735434	      0.50889282	      5.55896722	      6.06550936	    -20.66410021	      6.66825592	      6.66825592	      9.76769124	      7.91372132	     -7.31444837	     43.80086441	    -10.61911268	      5.59461856	     41.81281212	     41.81281212	      7.85251650	    -14.31733428	     10.15116397	    -11.69415158	      5.67114135	      7.27055383	     40.64182237	    -18.18640986	     -1.13047563	     60.50081698	     45.18585001	      0.00000000	      0.00000000	     -7.66460767	     -6.97079669	      3.70528732	     22.31820184	     45.85800817	      0.00000000	      0.00000000
     58.56471429	     -6.23372103	     -7.31346636	      4.57671718	      0.96648377	      0.92635190	      0.50813669	      4.72351771	      6.42730778	    -20.79006730	      6.06585114	      6.06585114	     10.05991721	      8.37995777	     -7.56245680	     43.17902199	    -10.62831400	      5.70051263	     37.86254296	     37.86254296	      8.15199108	    -13.04424782	     10.52081910	    -11.61886550	      5.91627777	      7.36993019	     41.91161613	    -18.69443421	     -0.72993549	     64.19858417	     45.06783693	      0.00000000	      0.00000000	     -9.36117064	     -7.21219329	      4.65118010	     22.65088277	     45.59432413	      0.00000000	      0.00000000
     58.57607143	     -6.22489206	     -7.47659263	      4.63809265	      0.96690826	      0.92526021	      0.50721163	      3.93085402	      6.67364218	    -20.72262655	      5.69375214	      5.69375214	     10.48976219	      8.55510562	     -7.71695286	     42.33273323	    -10.63231847	      5.60860854	     33.97014329	     33.97014329	      8.48611686	    -11.77228532	     11.19220549	    -11.47396176	      6.07791571	      7.21710616	     43.68208658	    -18.53478005	     -0.77938695	     66.03760193	     45.02040951	      0.00000000	      0.00000000	    -10.92088257	     -7.26668593	      4.93143860	     22.23157699	     45.50171354	      0.00000000	      0.00000000
     58.58742857	     -6.22750788	     -7.68707812	      4.70469656	      0.96756509	      0.92395572	      0.50611408	      3.15050430	      6.95167698	    -20.73218095	      5.34399934	      5.34399934	     10.95139480	      8.83960282	     -7.81353840	     41.50327209	    -10.70020981	      5.34488670	     30.45390151	     30.45390151	      9.02894846	    -10.41863477	     12.64874373	    -11.34952791	      6.31770312	      7.44949861	     44.69346137	    -19.08420125	     -0.57672381	     69.65567206	     44.92886172	      0.00000000	      0.00000000	    -12.64592302	     -7.60000913	      6.31556754	     23.10487410	     45.16122216	      0.00000000	      0.00000000
     58.59878571	     -6.17286523	     -7.86421914	      4.73674709	      0.96858793	      0.92257207	      0.50489822	      2.36057625	      7.16591566	    -20.60421719	      5.16528011	      5.16528011	     11.50395983	      8.92256473	     -7.95617364	     40.50594109	    -10.77586793	      4.85739484	     27.20481154	     27.20481154	      9.19318017	     -9.32903747	     13.40399515	    -11.16060217	      6.48685893	      7.29741670	     46.26680948	    -18.90213255	     -0.63013111	     71.34125374	     44.88774713	      0.00000000	      0.00000000	    -14.14971670	     -7.62984865	      6.58038120	     22.80888784	     45.07928726	      0.00000000	      0.00000000
